<svg xmlns="http://www.w3.org/2000/svg" width="100%" height="100%" viewBox="0 0 29 28" fill="none"><rect x="0.635254" fill="none"></rect><path fill-rule="evenodd" clip-rule="evenodd" d="M20.377 4.2453C20.9009 4.2453 21.3264 4.67081 21.3264 5.19476C21.3264 5.7187 20.9009 6.14421 20.377 6.14421C19.853 6.14421 19.4275 5.7187 19.4275 5.19476C19.4291 4.67081 19.853 4.2453 20.377 4.2453ZM20.631 12.5141C21.4503 13.7367 22.4871 14.1114 23.8335 13.2842C23.8779 13.7446 23.889 14.2146 23.8652 14.6909C23.6001 19.9558 19.1179 24.0092 13.853 23.7441C8.58975 23.4774 4.53631 18.9952 4.80146 13.7319C5.06502 8.46705 9.70275 4.36914 14.966 4.63429C14.4992 6.09499 14.8946 7.39216 16.0822 7.83355C15.0057 11.2916 17.4095 13.5541 20.631 12.5141ZM9.55668 11.833C10.3458 11.833 10.984 12.4729 10.984 13.2604C10.984 14.0479 10.3442 14.6877 9.55668 14.6877C8.76758 14.6877 8.12932 14.0479 8.12932 13.2604C8.12932 12.4729 8.76917 11.833 9.55668 11.833ZM14.0531 13.6525C14.5072 13.6525 14.8755 14.0209 14.8755 14.475C14.8755 14.9291 14.5072 15.2974 14.0531 15.2974C13.599 15.2974 13.2307 14.9291 13.2307 14.475C13.2291 14.0209 13.5974 13.6525 14.0531 13.6525ZM10.4839 17.0407C11.038 17.0407 11.4873 17.4901 11.4873 18.0442C11.4873 18.5983 11.038 19.0476 10.4839 19.0476C9.92979 19.0476 9.48047 18.5983 9.48047 18.0442C9.48047 17.4885 9.92979 17.0407 10.4839 17.0407ZM12.6464 9.36252C13.0814 9.36252 13.4323 9.715 13.4323 10.1484C13.4323 10.5835 13.0798 10.9344 12.6464 10.9344C12.2113 10.9344 11.8605 10.5819 11.8605 10.1484C11.8605 9.715 12.2129 9.36252 12.6464 9.36252ZM16.9173 17.3916C17.6461 17.3916 18.2352 17.9823 18.2352 18.7094C18.2352 19.4382 17.6445 20.0272 16.9173 20.0272C16.1886 20.0272 15.5995 19.4366 15.5995 18.7094C15.5995 17.9823 16.1902 17.3916 16.9173 17.3916ZM19.6927 7.91293C20.1817 7.91293 20.5786 8.30986 20.5786 8.79888C20.5786 9.2879 20.1817 9.68483 19.6927 9.68483C19.2037 9.68483 18.8067 9.2879 18.8067 8.79888C18.8067 8.30986 19.2037 7.91293 19.6927 7.91293Z" fill="currentColor"></path></svg>