<svg xmlns="http://www.w3.org/2000/svg" width="1025" height="390" viewBox="0 0 1025 390">
<g>
<path d="M 673.65 297.58 C670.82,298.46 664.34,299.42 659.25,299.73 L 650.00 300.27 L 650.00 297.14 C650.00,294.11 650.16,294.00 654.25,293.99 C661.51,293.98 671.02,292.02 675.86,289.55 C686.28,284.23 691.31,275.27 692.95,259.14 C694.06,248.20 694.32,239.00 693.52,239.00 C693.26,239.00 691.23,240.96 689.02,243.36 C684.55,248.22 676.17,252.45 667.98,254.00 C665.09,254.55 657.00,255.00 650.00,255.00 C635.20,255.00 629.01,254.01 620.89,250.37 C610.94,245.90 604.88,237.84 601.46,224.50 C599.22,215.76 598.89,187.77 600.93,178.50 C604.89,160.46 614.99,150.23 632.02,147.00 C639.11,145.65 662.64,145.73 669.20,147.12 C680.47,149.51 690.17,156.51 694.44,165.34 C699.61,176.01 700.19,180.37 700.73,212.51 C701.51,258.58 699.46,274.97 691.60,285.33 C687.65,290.53 680.39,295.49 673.65,297.58 ZM 322.99 253.93 C315.30,255.18 295.76,255.14 288.04,253.86 C272.02,251.20 261.80,241.42 257.40,224.50 C254.85,214.68 254.84,185.42 257.39,176.07 C261.14,162.35 268.47,153.35 279.55,148.90 C285.15,146.65 286.71,146.51 306.00,146.51 C325.25,146.51 326.86,146.66 332.41,148.89 C336.21,150.41 340.29,153.17 343.86,156.63 C346.90,159.58 349.42,162.00 349.45,162.00 C349.48,162.00 349.38,146.03 349.23,126.50 L 348.95 91.00 L 356.00 91.00 L 355.99 154.25 C355.97,223.93 355.91,224.77 349.79,236.24 C344.58,246.02 335.72,251.87 322.99,253.93 ZM 632.50 247.64 C635.76,248.48 642.73,248.85 652.50,248.69 C666.53,248.47 667.89,248.27 673.50,245.67 C683.45,241.06 688.62,234.74 691.65,223.50 C693.69,215.93 694.41,196.88 693.07,186.02 C691.04,169.54 685.51,160.87 673.50,155.34 C668.12,152.86 666.13,152.54 654.19,152.17 C639.34,151.72 631.10,152.90 623.97,156.52 C618.60,159.23 612.45,165.68 610.28,170.86 C607.88,176.59 606.07,188.63 606.03,199.18 C605.93,229.14 613.33,242.69 632.50,247.64 ZM 291.44 248.01 C300.07,249.28 315.18,249.03 322.36,247.51 C334.55,244.93 342.07,238.77 346.06,228.10 C351.17,214.46 350.81,182.84 345.42,171.03 C340.89,161.12 333.79,155.41 323.00,153.02 C316.37,151.55 290.29,152.14 284.82,153.88 C278.85,155.78 271.76,161.17 268.73,166.10 C264.55,172.90 262.95,179.98 262.31,194.60 C260.81,228.61 269.64,244.81 291.44,248.01 ZM 868.50 251.50 C868.50,254.23 868.19,254.51 865.00,254.65 C852.96,255.16 837.43,249.48 829.68,241.74 C819.48,231.53 816.62,222.39 816.64,200.00 C816.65,181.59 818.48,173.84 824.95,164.81 C832.65,154.05 842.76,148.71 858.99,146.81 C870.42,145.47 884.78,146.78 893.08,149.94 C904.75,154.37 914.93,165.56 918.32,177.66 C919.22,180.87 920.08,188.00 920.23,193.50 L 920.50 203.50 L 871.75 203.76 L 823.00 204.02 L 823.01 206.26 C823.01,207.49 823.49,211.43 824.06,215.00 C827.15,234.24 840.61,246.59 859.95,247.91 L 868.50 248.50 ZM 415.81 251.25 C415.53,254.21 415.18,254.51 412.00,254.64 C408.14,254.79 406.15,254.54 398.00,252.88 C382.39,249.71 369.69,237.41 365.53,221.47 C363.68,214.37 363.43,188.79 365.13,180.80 C368.42,165.30 380.67,152.58 396.35,148.39 C410.32,144.65 433.40,146.13 443.85,151.42 C459.81,159.51 469.12,177.80 467.81,198.50 L 467.50 203.50 L 419.25 203.76 L 371.00 204.02 L 371.00 209.92 C371.00,231.58 387.69,247.95 409.81,247.99 L 416.13 248.00 ZM 823.01 194.75 L 823.00 197.00 L 914.00 197.00 L 913.98 193.75 C913.95,187.92 911.15,177.05 908.37,171.93 C904.87,165.50 898.35,159.53 891.18,156.16 C885.73,153.61 884.82,153.50 868.48,153.50 L 851.46 153.50 L 844.86 156.75 C837.14,160.55 830.84,166.92 827.46,174.32 C825.28,179.12 823.03,189.45 823.01,194.75 ZM 371.00 191.11 L 371.00 197.00 L 461.00 197.00 L 460.99 192.75 C460.96,186.57 458.35,176.46 455.54,171.66 C451.89,165.44 445.23,159.44 438.50,156.31 C433.00,153.74 431.34,153.48 418.47,153.17 C397.15,152.64 388.14,155.79 379.44,166.81 C374.15,173.53 371.00,182.58 371.00,191.11 ZM 538.00 254.02 C532.98,254.51 530.44,254.77 527.90,254.78 C525.19,254.79 522.48,254.53 516.78,253.98 L 516.23 253.93 C492.61,251.65 476.89,241.16 475.84,227.00 C475.52,222.75 475.65,222.48 478.22,222.19 C480.49,221.92 481.03,222.33 481.55,224.69 C484.02,235.97 489.66,241.34 503.50,245.59 C508.29,247.05 512.92,247.43 526.50,247.46 C541.52,247.50 544.35,247.23 550.83,245.20 C566.08,240.40 574.44,227.18 569.58,215.53 C566.22,207.50 556.00,204.43 529.50,203.52 C502.80,202.60 494.66,201.52 487.26,197.92 C478.67,193.74 475.66,188.72 475.68,178.63 C475.72,158.71 492.20,146.08 518.25,146.02 L 525.00 146.00 L 525.00 149.00 C525.00,151.98 524.97,152.00 519.25,152.02 C511.26,152.04 500.57,154.48 495.55,157.42 C483.36,164.56 478.99,176.87 485.09,186.90 C489.04,193.40 498.13,195.50 526.50,196.48 C547.27,197.20 557.41,198.43 564.58,201.12 C570.65,203.39 573.17,205.87 576.08,212.45 C577.89,216.54 578.16,218.53 577.69,224.20 C576.22,241.71 563.10,251.57 538.00,254.02 ZM 808.78 217.25 L 809.13 255.00 L 806.23 255.00 C804.64,255.00 803.03,254.70 802.67,254.33 C802.30,253.97 802.00,238.24 802.00,219.38 C802.00,198.01 801.58,183.10 800.89,179.80 C799.02,170.93 795.32,164.30 789.82,159.95 C782.11,153.86 776.26,152.50 758.00,152.56 C744.22,152.61 741.85,152.88 736.58,154.94 C733.33,156.22 728.68,159.10 726.25,161.33 C718.28,168.68 716.06,175.45 715.29,194.75 L 714.72 209.00 L 708.00 209.00 L 708.03 198.75 C708.14,167.73 717.46,152.63 739.74,147.38 C749.51,145.09 775.14,145.94 783.23,148.83 C795.14,153.09 801.94,160.28 806.32,173.25 C808.29,179.08 808.45,182.03 808.78,217.25 ZM 935.06 217.50 L 934.50 254.50 L 931.17 254.82 L 927.83 255.14 L 928.24 217.82 C928.60,185.46 928.89,179.77 930.44,175.00 C937.37,153.64 949.23,146.05 975.75,146.01 L 987.00 146.00 L 987.00 151.73 L 974.25 152.26 C956.43,152.98 947.73,156.63 941.91,165.79 C935.91,175.26 935.67,177.07 935.06,217.50 ZM 592.00 146.00 L 592.00 255.00 L 589.17 255.00 C587.61,255.00 586.03,254.70 585.67,254.33 C585.30,253.97 585.00,229.44 585.00,199.83 L 585.00 146.00 Z" fill="rgb(28,60,87)"/>
<path d="M 97.00 268.55 C97.00,269.45 90.36,268.83 85.23,267.45 C74.73,264.62 66.96,259.01 62.69,251.17 C61.18,248.39 55.17,233.16 49.33,217.31 C38.83,188.79 38.72,188.41 38.67,179.50 C38.62,168.66 41.02,161.53 47.38,153.66 C50.70,149.55 53.47,147.54 61.02,143.79 C68.57,140.04 145.56,106.46 154.75,102.92 L 157.00 102.05 L 157.00 138.74 L 151.25 137.30 C142.91,135.22 111.78,135.30 102.60,137.44 C92.82,139.71 84.91,144.27 78.08,151.57 C71.70,158.40 68.16,164.94 65.40,175.00 C62.79,184.54 62.71,221.63 65.28,231.00 C69.69,247.05 77.79,258.01 89.98,264.42 C93.84,266.45 97.00,268.31 97.00,268.55 ZM 143.74 236.48 C137.13,238.45 115.13,238.49 109.68,236.55 C99.97,233.09 97.79,227.74 97.20,205.93 C96.58,182.76 98.81,175.69 108.29,170.85 C111.81,169.06 114.27,168.75 125.45,168.68 C144.76,168.58 150.96,171.14 154.68,180.78 C156.20,184.72 156.50,188.48 156.50,203.50 C156.50,222.85 155.80,226.71 151.34,232.01 C149.79,233.85 146.93,235.54 143.74,236.48 ZM 200.32 226.56 C195.20,229.00 190.50,231.00 189.89,231.00 C189.15,231.00 189.02,229.91 189.51,227.75 C189.91,225.96 190.52,198.21 190.87,166.07 L 191.50 107.65 L 196.17 112.84 C201.03,118.25 201.20,118.63 211.54,147.00 C214.65,155.52 218.48,165.92 220.05,170.10 C229.78,195.96 222.84,215.83 200.32,226.56 Z" fill="#EC1F29"/>
</g>
</svg>