<?xml version="1.0" encoding="UTF-8"?>
<svg version="1.1" viewBox="0 0 1392 1392" width="348" height="348" xmlns="http://www.w3.org/2000/svg">
<path transform="translate(0)" d="m0 0h1392v1392h-1392z" fill="#FEFFFE"/>
<path transform="translate(861,154)" d="m0 0 3 1v243l-37-10-26-5-21-3-35-3-31-1h-78l-39 1-31 2-35 4-27 5-24 6-33 11-28 13-14 8-14 9-17 12-14 12-15 14-8 8-7 8-14 17-13 18-8 13-9 16-8 16-10 24-8 24-6 24-6 31-4 32-3 45-2 46v104l3 37 6 42 7 33 8 28 7 21 10 24 9 19 14 24 11 16 10 13 9 11 7 7 7 8 10 9 14 12 11 8 18 12 18 10 25 12 30 12 3 3h-51l-27-4-24-6-21-7-26-12-14-8-12-8-12-9-13-11-17-17-11-14-10-14-10-17-10-21-36-98-20-55-18-49-11-30-13-35-7-20-18-49-7-19-8-28-5-28-2-20v-33l3-25 5-25 6-20 9-24 10-20 12-19 12-16 9-10 7-8 12-12 11-9 15-11 13-8 18-10 41-18 86-37 116-50 58-25 79-34 56-24 39-17 65-28 28-12 54-23z" fill="#EC1F29"/>
<path transform="translate(625,594)" d="m0 0h84l24 2 27 4 21 6 18 8 15 9 13 12 9 11 8 16 6 15 6 22 5 29 3 33 1 20v67l-2 48-3 33-4 24-6 23-8 20-8 13-11 13-13 10-16 9-19 7-21 5-18 3-22 2-31 1h-44l-32-1-29-3-22-5-18-6-17-9-11-8-12-12-7-10-7-12-9-25-4-20-4-32-3-32-3-56v-33l2-37 4-36 5-26 6-21 5-13 7-14 10-13 9-9 16-11 16-8 15-5 12-3 22-3z" fill="#EC1F29"/>
<path transform="translate(1089,193)" d="m0 0 6 3 14 12 13 12 12 14 14 19 12 21 9 20 16 43 21 58 17 46 46 126 18 49 12 34 6 20 5 26 3 23v39l-3 24-4 21-7 25-8 20-8 17-8 14-10 15-11 14-18 20-8 7-9 8-18 13-15 9-19 10-30 13-37 16-19 8-9 3 1-8 6-29 4-26 4-39 1-19z" fill="#EC1F29"/>
</svg>
