<svg xmlns="http://www.w3.org/2000/svg" width="348" height="348" viewBox="0 0 348 348">
<g>
<path d="M 96.22 312.98 C81.18,309.04 66.30,298.51 59.26,286.83 C56.05,281.49 50.34,266.62 30.49,211.97 C18.59,179.20 17.07,172.08 19.00,158.03 C21.10,142.69 27.05,130.29 37.17,120.17 C46.80,110.53 38.18,114.58 168.14,58.65 C193.25,47.84 214.29,39.00 214.89,39.00 C215.68,39.00 216.00,47.75 216.00,69.00 C216.00,85.50 215.80,99.00 215.56,99.00 C215.32,99.00 211.39,98.05 206.81,96.88 C199.78,95.09 194.60,94.68 173.16,94.27 C138.17,93.59 122.47,95.79 106.75,103.55 C83.81,114.89 68.59,135.56 63.01,162.95 C60.21,176.68 58.73,210.41 60.11,228.85 C63.22,270.48 80.20,298.03 111.00,311.44 C114.57,313.00 117.69,314.44 117.92,314.64 C119.32,315.86 102.25,314.56 96.22,312.98 ZM 150.50 263.94 C122.27,261.57 115.99,250.64 115.98,203.84 C115.97,177.87 118.26,167.26 125.70,158.99 C128.71,155.64 131.88,153.39 135.79,151.82 C141.18,149.65 142.83,149.53 165.50,149.51 C188.45,149.50 189.76,149.60 195.38,151.87 C211.44,158.35 215.92,170.02 215.95,205.50 C215.97,236.04 213.79,246.33 205.55,254.50 C199.50,260.50 193.87,262.72 181.40,264.03 C171.44,265.08 163.75,265.05 150.50,263.94 ZM 268.39 251.79 C271.68,240.11 271.99,230.52 271.99,139.75 C272.00,73.94 272.30,49.00 273.11,49.00 C275.02,49.00 285.42,60.52 288.31,65.84 C289.83,68.63 293.79,78.24 297.12,87.20 C314.29,133.55 325.87,166.06 326.88,170.80 C328.64,179.10 328.26,192.66 326.03,201.39 C320.79,221.87 307.12,237.33 286.72,245.85 C282.75,247.51 276.85,250.04 273.62,251.48 L 267.74 254.09 L 268.39 251.79 Z" fill="#ffffff"/>
</g>
</svg>